<svg width="22" height="14" viewBox="0 0 22 14" fill="none" xmlns="http://www.w3.org/2000/svg">
<path d="M1.0112 1.40559C0.747091 1.68075 0.599608 2.04738 0.599608 2.42879C0.599608 2.81019 0.747091 3.17683 1.0112 3.45199L10.32 13.0616C10.4219 13.1684 10.5444 13.2535 10.6801 13.3116C10.8159 13.3697 10.962 13.3996 11.1096 13.3996C11.2572 13.3996 11.4033 13.3697 11.5391 13.3116C11.6748 13.2535 11.7973 13.1684 11.8992 13.0616L21.2072 3.45199C21.4713 3.17682 21.6188 2.81019 21.6188 2.42879C21.6188 2.04738 21.4713 1.68075 21.2072 1.40559C21.0794 1.27135 20.9256 1.16448 20.7552 1.09146C20.5848 1.01844 20.4014 0.980786 20.216 0.980786C20.0306 0.980786 19.8472 1.01844 19.6768 1.09146C19.5064 1.16448 19.3526 1.27135 19.2248 1.40559L11.104 9.77759L2.9816 1.39359C2.85335 1.26159 2.69974 1.15687 2.53 1.08573C2.36026 1.01459 2.17789 0.978501 1.99385 0.979622C1.8098 0.980742 1.62789 1.01905 1.45902 1.09225C1.29016 1.16545 1.13784 1.27203 1.0112 1.40559Z" fill="white"/>
</svg>
