<svg width="22" height="14" viewBox="0 0 22 14" fill="none" xmlns="http://www.w3.org/2000/svg">
<path d="M20.9888 12.5944C21.2529 12.3193 21.4004 11.9526 21.4004 11.5712C21.4004 11.1898 21.2529 10.8232 20.9888 10.548L11.68 0.938413C11.5781 0.831582 11.4556 0.746541 11.3199 0.688436C11.1841 0.630332 11.038 0.600372 10.8904 0.600372C10.7428 0.600372 10.5967 0.630332 10.4609 0.688436C10.3252 0.746541 10.2027 0.831582 10.1008 0.938413L0.792795 10.548C0.528683 10.8232 0.381199 11.1898 0.381199 11.5712C0.381199 11.9526 0.528683 12.3193 0.792795 12.5944C0.920639 12.7286 1.07442 12.8355 1.2448 12.9085C1.41518 12.9816 1.59862 13.0192 1.784 13.0192C1.96937 13.0192 2.15281 12.9816 2.32319 12.9085C2.49358 12.8355 2.64735 12.7286 2.7752 12.5944L10.896 4.22241L19.0184 12.6064C19.1466 12.7384 19.3003 12.8431 19.47 12.9143C19.6397 12.9854 19.8221 13.0215 20.0062 13.0204C20.1902 13.0193 20.3721 12.9809 20.541 12.9077C20.7098 12.8345 20.8622 12.728 20.9888 12.5944Z" fill="white"/>
</svg>
